<svg width="120" height="120" viewBox="0 0 120 120" fill="none" xmlns="http://www.w3.org/2000/svg">
<g clip-path="url(#clip0_305_2)">
<rect width="120" height="120" fill="black"/>
<path d="M33.5426 95C33.0092 95 32.6012 94.6862 32.3188 94.0586C32.0678 93.431 31.9423 92.9446 31.9423 92.5995C31.9423 91.5639 32.46 90.9834 33.4956 90.8579C35.0018 90.7324 36.508 90.4657 38.0142 90.0577C39.5518 89.6184 40.3206 88.881 40.3206 87.8455L40.3677 36.9165C40.3677 35.5671 39.9598 34.5944 39.1439 33.9982C38.3594 33.402 37.418 33.0097 36.3197 32.8214C35.2214 32.6018 34.1859 32.4449 33.2131 32.3507C32.5542 32.288 32.0992 32.1625 31.8481 31.9742C31.6285 31.7545 31.5187 31.2995 31.5187 30.6092C31.5187 30.264 31.6442 29.7776 31.8952 29.15C32.1776 28.5224 32.5856 28.2086 33.119 28.2086H56.4183C56.9518 28.2086 57.344 28.5224 57.5951 29.15C57.8775 29.7776 58.0187 30.264 58.0187 30.6092C58.0187 31.6447 57.5009 32.2252 56.4654 32.3507C54.9592 32.4763 53.5157 32.7587 52.135 33.198C50.7857 33.6059 50.111 34.3277 50.111 35.3632L50.064 86.2922C50.064 87.6415 50.4248 88.6143 51.1466 89.2105C51.8683 89.8067 52.7469 90.1989 53.7824 90.3872C54.818 90.5755 55.8064 90.7324 56.7478 90.8579C57.4068 90.9207 57.8461 91.0462 58.0657 91.2345C58.3168 91.4227 58.4423 91.8777 58.4423 92.5995C58.4423 92.9446 58.3011 93.431 58.0187 94.0586C57.7676 94.6862 57.3754 95 56.8419 95H33.5426ZM79.3881 95C78.8547 95 78.1643 94.749 77.3171 94.2469C76.4698 93.7448 75.4814 92.6936 74.3517 91.0932C73.1279 89.3674 71.7943 87.312 70.3508 84.9272C68.9074 82.5109 67.3855 80.0163 65.7851 77.4431C64.2161 74.8386 62.6315 72.4067 61.0311 70.1474C59.4308 67.8567 57.8618 65.9739 56.3242 64.4991C54.7866 62.9929 53.3431 62.1613 51.9938 62.0044L73.834 34.9396C74.085 34.6571 74.2105 34.3904 74.2105 34.1394C74.2105 33.7001 73.881 33.3706 73.2221 33.1509C72.5631 32.9313 71.81 32.7744 70.9627 32.6802C70.1155 32.5547 69.4095 32.4606 68.8446 32.3978C68.2484 32.3351 67.8562 32.1625 67.6679 31.88C67.4796 31.5663 67.3855 31.1583 67.3855 30.6562C67.3855 30.3111 67.511 29.8247 67.762 29.1971C68.0444 28.5381 68.4524 28.2086 68.9858 28.2086H90.2141C90.7475 28.2086 91.1398 28.5381 91.3908 29.1971C91.6732 29.8247 91.8144 30.3111 91.8144 30.6562C91.8144 31.8173 91.2967 32.3978 90.2612 32.3978C88.6608 32.3978 87.0291 32.6959 85.366 33.2921C83.7028 33.8883 82.2437 34.6414 80.9885 35.5515L62.4903 57.3916C63.9651 58.3644 65.6125 59.9647 67.4325 62.1927C69.2526 64.3893 71.1196 66.8682 73.0338 69.6296C74.9793 72.3597 76.8621 75.0583 78.6821 77.7256C80.5021 80.3928 82.1182 82.6678 83.5302 84.5506C84.6913 86.0882 86.1504 87.4846 87.9077 88.7398C89.6649 89.995 91.1241 90.6853 92.2851 90.8108C92.9441 90.8736 93.3834 91.156 93.6031 91.6581C93.8541 92.1602 93.9796 92.7721 93.9796 93.4938C93.9796 93.839 93.8384 94.1841 93.556 94.5293C93.305 94.8431 92.9127 95 92.3793 95H79.3881Z" fill="white"/>
</g>
<defs>
<clipPath id="clip0_305_2">
<rect width="120" height="120" fill="white"/>
</clipPath>
</defs>
</svg>
